<svg xmlns="http://www.w3.org/2000/svg" width="295" height="80" viewBox="0 0 295 80">
    <g fill="none" fill-rule="evenodd">
        <path fill="#0d79bf" d="M4.334 39.665c-.15 1.265-.23 2.553-.23 3.858 0 17.88 14.494 32.373 32.373 32.373 17.88 0 32.373-14.494 32.373-32.373 0-1.305-.08-2.593-.23-3.858h4.13c.134 1.268.204 2.555.204 3.858C72.954 63.67 56.622 80 36.477 80 16.33 80 0 63.669 0 43.523c0-1.303.07-2.59.203-3.858h4.13zm46.118 7.196l.289-.445c.263-.393.464-.586.817-.332.433.31-.312 1.647-1.06 2.6-.623.795-1.035.58-1.922.111-.547 1.14-.585 3.976-.406 5.765l.019.18.266 4.78-.012.167c-.049.497-.2.667-.772.632-1.023 0-1.088-9.359-1.556-4.494-.018.191-.053.457-.091.731l-.136.94c-.087.613-.142 1.033-.233 1.665-.221 1.517-1.136 1.358-1.385.766-.142-.337.337-6.919.38-7.74.007-.945-.12-1.432-.139-2.342l-.002-.236-.427.523c-2.083 2.799-4.005-1.146-3.37-1.337.38-.093.366.422.795.879 1.104 1.056 2.152-.794 2.539-1.748l.079-.207c.284-.8.275-1.228 2.146-1.228 2.874 0 2.04 1.355 3.39 1.355.119 0 .568-.65.79-.985zm-28.844-1.047c.46 0 1.829 1.628 2.199 2.003 1.082 1.095 1.666.573 3.766.573l.3.052c.57.105.762.204.986.712l.036.083c1.324 3.195 2.693.332 3.453.13.344.19-.073 1.036-.548 1.622-1.597 1.973-2.863.317-3.142.112l-.136 2.17c0 2.48.154 3.25.257 5.217l.033.724c.022.574-.005 1.108-.561 1.108-.608 0-.684-.196-.744-.576l-.095-.605c-.054-.362-.083-.63-.15-1.084L27.02 56.2c-.213-1.543-.295-1.546-.55.2l-.228 1.64c-.108.765-.094 2.28-.837 2.28-1.222 0-.556-2.328-.542-4.088v-.518c.012-1.636.197-1.29.036-3.815l-.048-.686c-.157-1.99-.297-.65-1.875-2.466l-.274-.324c-.553-.668-2.095-2.609-1.093-2.609zm-6.84-11.932l.34.004c4.3.089 4.175 1.932 6.373 7.49l.086.215c.249.623 1.996 4.222.794 4.222-.825 0-1.736-2.356-2.344-3.602l-.051-.104c-.24-.477-1.473-3.38-2.03-3.726l-.049-.025.93 5.579c.218 1.327.783 4.026.83 5.37l.003.168h-1.763l-.405 8.543.002.444c-.006.806-.079 1.86-.681 1.86-.754 0-.824-.836-.82-1.781l.009-.663-.134-2.984-.033-1.195c-.037-1.198-.11-2.937-.265-4.09l-.022-.155h-.744l-.038.275c-.321 2.485-.363 7.648-.399 8.282l.002.265c.013.865.077 2.045-.675 2.045-.546 0-.673-.284-.688-.845l-.002-.09c-.013-1.477-.236-2.532-.259-3.874v-.342l-.27-5.695h-1.763c.03-1.34 1.615-9.34 1.762-11.117-.537.36-1.777 3.093-2.124 3.841l-.144.324c-.45 1.036-1.394 3.292-2.07 3.292-.694 0-.679-.463-.523-.97l.02-.063 2.343-6.075.112-.285c.987-2.54 1.431-4.538 4.69-4.538zm38.717.029c1.489-1.593 6.271-1.758 7.724.082 1.306 1.653 3.635 10.423 3.635 11.82 0 .259-.44.351-.677.406-.952-.636-1.573-3.063-1.94-4.248l-.076-.242-1.252-3.63-.072-.176c-.115-.279-.223-.485-.503-.615l-.089-.036v3.118l.136 8.947c-.006 1.71.025 3.756.106 5.524l.029.579c.08 1.495.722 4.879-.949 4.879-1.16 0-1.06-1.524-1.182-2.479-.085-.677-.146-1.29-.2-1.908l-.121-1.43-.802-6.656c0 1.37-.794 7.056-1.033 9.479l-.04.43c-.084 1.031-.047 2.564-1.096 2.564-1.09 0-1.285-.785-1.23-1.918l.007-.114.414-8.945.039-1.455c.013-.458.03-.897.06-1.34l.025-.334c.216-2.605-.114-3.868-.13-5.623l-.001-.197c.004-1.04.003-2.08.003-3.121-.45 0-2.778 6.695-3.175 7.67-.803 1.975-1.57 1.12-1.57.735 0-.578.422-2.123.745-3.248l.382-1.313c.572-1.99 1.728-6.023 2.833-7.205zm-17.778 6.887l.302-.002c1.724-.022 2.828-.188 3.69 1.233l.074.126 1.048 2.477c.297.74.55 1.423.822 2.119l.165.419c.144.36 1.155 2.304.271 2.304-.643 0-1.196-1.547-1.71-2.604l-.052-.107-1.491-2.847c0 1.822 1.142 5.652 1.216 8.036l.004.234h-1.22c-.127 2.02-.426 4.526-.41 6.504l.01.534c.007.605-.05 1.202-.613 1.015-.527-.174-.315-1.164-.422-1.874l-.065-1.25c-.092-1.67-.254-4.364-.328-4.887l-.007-.043-.358-.01c-.302.785-.08 8.028-.929 8.102-.7.061-.542-.926-.534-1.648v-.076l-.412-6.367h-1.22c0-1.222 1.22-7.174 1.22-8.134-.431.316-1.877 3.471-2.401 4.54l-.167.334c-.15.297-.278.5-.58.546-.57.071-.516-.303-.438-.6l.023-.083 2.153-5.568c.403-1.03 1.042-2.423 2.36-2.423zm-9.181 3.545c1.012 0 1.837.825 1.837 1.838 0 1.011-.825 1.837-1.837 1.837-1.013 0-1.838-.826-1.838-1.837 0-1.013.825-1.838 1.838-1.838zm19.79-1.977c1.012 0 1.837.826 1.837 1.837 0 1.013-.825 1.837-1.837 1.837-1.013 0-1.837-.824-1.837-1.837 0-1.011.824-1.837 1.837-1.837zm-11.405-4.93c.793-1.893 3.177-1.439 3.714-.11.237.581.034.665.543.948.352.196.775.218 1.274.218-.137 1.635-1.936 1.207-2.237 1.281-.511.24-.781.544-1.41.544-.739 0-.904-.326-1.452-.63-.151-.043-2.21.588-2.358-1.195.563 0 .854-.028 1.274-.217l.155-.071c.45-.213.264-.213.497-.769zm-22.126-6.672c0-3.243 3.184-3.79 4.852-2.006.544.582.57.949.57 2.006.659.153.613.271 1.492.271-.066.795-.783 1.356-1.627 1.356-.381 0-.083-.212-.598.065l-.4.236c-.76.437-1.734.872-2.985.156-.59-.338-.368-.556-.934-.551l-.108.003c-.738.035-1.66-.143-1.754-1.265.88 0 .833-.118 1.492-.27zm44.375-4.367c1.49 0 2.706 1.216 2.706 2.706s-1.216 2.705-2.706 2.705-2.705-1.215-2.705-2.705 1.215-2.706 2.705-2.706zM31.437 1.965c4.737-2.9 7.41-2.43 11.694.364l.4.265c.322.215.572.367.87.574l.186.132 25.664 17.855c1.69 1.253 1.815 3.523.522 4.692-.86.777-1.29.845-2.158.85h-.381c-.934 0-5.318-3.107-7.344-4.596l-.617-.458-6.707-4.682c-.295-.2-.523-.34-.803-.528l-.175-.12-13.419-9.357c-1.828-1.228-2.901-.935-4.504.136-4.356 2.913-8.943 6.314-13.31 9.277l-1.086.73c-.374.25-.607.411-.956.67-2.589 1.924-6.151 4.266-9.145 6.399l-.423.303c-.953.685-2.97 2.226-4.146 2.226-1.993 0-3.254-1.127-3.254-3.118 0-2.056 3.528-3.845 5.616-5.366.386-.281.67-.448 1.056-.706.345-.232.558-.408.865-.623L31.437 1.965z"/>
        <path fill="#0d79bf" fill-opacity=".85" fill-rule="nonzero" d="M95.914 35.2c1.187 0 2.22-.203 3.1-.61.88-.407 1.563-.963 2.05-1.67.487-.707.743-1.5.77-2.38.013-.12-.023-.22-.11-.3-.087-.08-.19-.12-.31-.12h-1.94c-.16 0-.28.037-.36.11-.08.073-.147.203-.2.39-.2.827-.55 1.41-1.05 1.75-.5.34-1.15.51-1.95.51-1.907 0-2.9-1.067-2.98-3.2-.013-.387-.02-.953-.02-1.7v-.27c.002-.612.008-1.075.02-1.39.08-2.133 1.073-3.2 2.98-3.2.813 0 1.467.17 1.96.51.493.34.84.923 1.04 1.75.053.187.12.317.2.39.08.073.2.11.36.11h1.94c.107 0 .203-.037.29-.11.087-.073.13-.163.13-.27v-.04c-.027-.88-.283-1.673-.77-2.38-.487-.707-1.17-1.263-2.05-1.67-.88-.407-1.913-.61-3.1-.61-1.827 0-3.247.477-4.26 1.43s-1.553 2.283-1.62 3.99c-.01.29-.017.718-.02 1.282v1.027c.003.554.01.971.02 1.251.067 1.733.603 3.07 1.61 4.01 1.007.94 2.43 1.41 4.27 1.41zm12.68 0c1.56 0 2.767-.4 3.62-1.2.853-.8 1.313-1.907 1.38-3.32.013-.16.02-.453.02-.88s-.007-.72-.02-.88c-.067-1.4-.533-2.503-1.4-3.31-.867-.807-2.067-1.21-3.6-1.21-1.547 0-2.753.403-3.62 1.21-.867.807-1.333 1.91-1.4 3.31l-.02.88.02.88c.067 1.413.527 2.52 1.38 3.32.853.8 2.067 1.2 3.64 1.2zm0-2.02c-.707 0-1.253-.22-1.64-.66-.387-.44-.593-1.087-.62-1.94l-.02-.78.02-.78c.027-.853.233-1.503.62-1.95.387-.447.933-.67 1.64-.67.693 0 1.233.223 1.62.67.387.447.593 1.097.62 1.95.013.133.02.393.02.78s-.007.647-.02.78c-.027.853-.23 1.5-.61 1.94-.38.44-.923.66-1.63.66zm17.68 4.26c.133 0 .247-.047.34-.14.093-.093.14-.207.14-.34v-3.62c0-.147-.043-.263-.13-.35-.087-.087-.203-.13-.35-.13h-.9v-7.78c0-.147-.043-.263-.13-.35-.087-.087-.203-.13-.35-.13h-1.68c-.133 0-.247.043-.34.13-.093.087-.14.203-.14.35v7.78h-4.24v-7.78c0-.133-.047-.247-.14-.34-.093-.093-.207-.14-.34-.14h-1.7c-.133 0-.247.043-.34.13-.093.087-.14.203-.14.35v9.44c0 .133.047.247.14.34.093.093.207.14.34.14h7.8v1.96c0 .133.047.247.14.34.093.093.207.14.34.14h1.68zm4.32-2.44c.227 0 .413-.107.56-.32l4.74-6.54v6.38c0 .133.047.247.14.34.093.093.207.14.34.14h1.7c.147 0 .263-.047.35-.14.087-.093.13-.207.13-.34v-9.48c0-.12-.047-.223-.14-.31-.093-.087-.2-.13-.32-.13h-1.54c-.213 0-.4.107-.56.32l-4.74 6.54v-6.38c0-.133-.047-.247-.14-.34-.093-.093-.207-.14-.34-.14h-1.7c-.133 0-.247.043-.34.13-.093.087-.14.203-.14.35v9.46c0 .133.043.243.13.33.087.087.197.13.33.13h1.54zm13.5.2c.8 0 1.467-.137 2-.41.533-.273.947-.623 1.24-1.05v.78c0 .133.047.247.14.34.093.093.207.14.34.14h1.66c.147 0 .263-.047.35-.14.087-.093.13-.207.13-.34v-6.28c0-1.147-.36-2.073-1.08-2.78-.72-.707-1.867-1.06-3.44-1.06-.96 0-1.767.157-2.42.47-.653.313-1.137.68-1.45 1.1-.313.42-.477.797-.49 1.13 0 .133.043.24.13.32.087.08.19.12.31.12h1.56c.147 0 .247-.08.3-.24l.039-.039.29-.291c.168-.167.384-.33.65-.49.268-.16.62-.24 1.06-.24.64 0 1.108.147 1.4.44.294.293.44.727.44 1.3v.42l-2.74.4c-1.28.2-2.286.58-3.02 1.14-.732.56-1.1 1.293-1.1 2.2 0 .56.164 1.073.49 1.54.328.467.774.837 1.34 1.11.568.273 1.19.41 1.87.41zm.68-1.92c-.493 0-.917-.117-1.27-.35-.353-.233-.53-.563-.53-.99 0-.787.767-1.3 2.3-1.54l2-.32v.4c0 .907-.233 1.6-.7 2.08-.467.48-1.067.72-1.8.72zm16.64 1.72c.147 0 .263-.047.35-.14.087-.093.13-.207.13-.34v-9.44c0-.147-.043-.263-.13-.35-.087-.087-.203-.13-.35-.13h-7.14c-.133 0-.247.043-.34.13-.093.087-.14.203-.14.35v2.7c0 1.733-.127 2.987-.38 3.76-.253.773-.673 1.18-1.26 1.22-.133.013-.243.06-.33.14-.087.08-.13.187-.13.32v1.28c0 .133.05.25.15.35.1.1.217.15.35.15 1.04 0 1.857-.223 2.45-.67.593-.447 1.023-1.167 1.29-2.16.267-.993.4-2.357.4-4.09v-1.34h2.9v7.78c0 .133.047.247.14.34.093.093.207.14.34.14h1.7zm7.74 0c1.387 0 2.44-.293 3.16-.88.72-.587 1.08-1.46 1.08-2.62 0-1.133-.347-2.02-1.04-2.66-.693-.64-1.707-.96-3.04-.96h-2.06v-2.8c0-.147-.043-.263-.13-.35-.087-.087-.203-.13-.35-.13h-1.7c-.133 0-.247.043-.34.13-.093.087-.14.203-.14.35v9.44c0 .133.047.247.14.34.093.093.207.14.34.14h4.08zm-.06-1.92h-1.88V29.8h1.88c.653 0 1.13.14 1.43.42.3.28.45.707.45 1.28 0 .573-.147.98-.44 1.22-.293.24-.773.36-1.44.36zm8.3 1.92c.133 0 .247-.047.34-.14.093-.093.14-.207.14-.34v-3.74h4.46v3.74c0 .133.047.247.14.34.093.093.207.14.34.14h1.7c.147 0 .263-.047.35-.14.087-.093.13-.207.13-.34v-9.44c0-.147-.043-.263-.13-.35-.087-.087-.203-.13-.35-.13h-1.7c-.133 0-.247.047-.34.14-.093.093-.14.207-.14.34v3.56h-4.46v-3.56c0-.133-.047-.247-.14-.34-.093-.093-.207-.14-.34-.14h-1.7c-.133 0-.247.043-.34.13-.093.087-.14.203-.14.35v9.44c0 .133.047.247.14.34.093.093.207.14.34.14h1.7zm14.74 0c1.387 0 2.44-.293 3.16-.88.72-.587 1.08-1.46 1.08-2.62 0-1.133-.347-2.02-1.04-2.66-.693-.64-1.7-.96-3.02-.96h-1.96v-2.8c0-.147-.043-.263-.13-.35-.087-.087-.203-.13-.35-.13h-1.7c-.133 0-.247.043-.34.13-.093.087-.14.203-.14.35v9.44c0 .133.047.247.14.34.093.093.207.14.34.14h3.96zm7.76 0c.133 0 .247-.047.34-.14.093-.093.14-.207.14-.34v-9.44c0-.133-.047-.247-.14-.34-.093-.093-.207-.14-.34-.14h-1.7c-.133 0-.247.043-.34.13-.093.087-.14.203-.14.35v9.44c0 .133.047.247.14.34.093.093.207.14.34.14h1.7zm-7.82-1.92h-1.76V29.8h1.76c.653 0 1.133.14 1.44.42.307.28.46.707.46 1.28 0 .573-.15.98-.45 1.22-.3.24-.783.36-1.45.36zm16.08-9.84c1.147 0 1.98-.25 2.5-.75s.78-1.15.78-1.95c0-.107-.033-.197-.1-.27-.067-.073-.16-.11-.28-.11h-1.16c-.12 0-.213.037-.28.11-.067.073-.1.163-.1.27 0 .773-.453 1.16-1.36 1.16-.893 0-1.34-.387-1.34-1.16 0-.107-.033-.197-.1-.27-.067-.073-.16-.11-.28-.11h-1.16c-.12 0-.213.037-.28.11-.067.073-.1.163-.1.27 0 .8.26 1.45.78 1.95s1.347.75 2.48.75zm-3.1 11.76c.227 0 .413-.107.56-.32l4.74-6.54v6.38c0 .133.047.247.14.34.093.093.207.14.34.14h1.7c.147 0 .263-.047.35-.14.087-.093.13-.207.13-.34v-9.48c0-.12-.047-.223-.14-.31-.093-.087-.2-.13-.32-.13h-1.54c-.213 0-.4.107-.56.32l-4.74 6.54v-6.38c0-.133-.047-.247-.14-.34-.093-.093-.207-.14-.34-.14h-1.7c-.133 0-.247.043-.34.13-.093.087-.14.203-.14.35v9.46c0 .133.043.243.13.33.087.087.197.13.33.13h1.54zm17.22 0c.133 0 .247-.047.34-.14.093-.093.14-.207.14-.34v-7.78h4.24v7.78c0 .133.047.247.14.34.093.093.207.14.34.14h1.68c.147 0 .263-.047.35-.14.087-.093.13-.207.13-.34v-9.44c0-.147-.043-.263-.13-.35-.087-.087-.203-.13-.35-.13h-8.58c-.133 0-.247.043-.34.13-.093.087-.14.203-.14.35v9.44c0 .133.047.247.14.34.093.093.207.14.34.14h1.7zm14.68.2c1.56 0 2.767-.4 3.62-1.2.853-.8 1.313-1.907 1.38-3.32.013-.16.02-.453.02-.88s-.007-.72-.02-.88c-.067-1.4-.533-2.503-1.4-3.31-.867-.807-2.067-1.21-3.6-1.21-1.547 0-2.753.403-3.62 1.21-.867.807-1.333 1.91-1.4 3.31l-.02.88.02.88c.067 1.413.527 2.52 1.38 3.32.853.8 2.067 1.2 3.64 1.2zm0-2.02c-.707 0-1.253-.22-1.64-.66-.387-.44-.593-1.087-.62-1.94l-.02-.78.02-.78c.027-.853.233-1.503.62-1.95.387-.447.933-.67 1.64-.67.693 0 1.233.223 1.62.67.387.447.593 1.097.62 1.95.013.133.02.393.02.78s-.007.647-.02.78c-.027.853-.23 1.5-.61 1.94-.38.44-.923.66-1.63.66zm9.48 5.62c.147 0 .263-.043.35-.13.087-.087.13-.203.13-.35v-4.54c.707.947 1.727 1.42 3.06 1.42 1.347 0 2.383-.43 3.11-1.29.727-.86 1.11-1.99 1.15-3.39.013-.16.02-.4.02-.72 0-.32-.007-.56-.02-.72-.053-1.427-.44-2.563-1.16-3.41s-1.753-1.27-3.1-1.27c-1.413 0-2.473.493-3.18 1.48v-.8c0-.133-.047-.247-.14-.34-.093-.093-.213-.14-.36-.14h-1.6c-.133 0-.247.043-.34.13-.093.087-.14.203-.14.35v13.24c0 .147.047.263.14.35.093.087.207.13.34.13h1.74zm2.78-5.76c-.733 0-1.293-.233-1.68-.7-.387-.467-.593-1.033-.62-1.7-.013-.173-.02-.433-.02-.78v-.166c.002-.263.009-.46.02-.594.027-.707.227-1.307.6-1.8.373-.493.94-.74 1.7-.74 1.427 0 2.187.88 2.28 2.64.013.133.02.333.02.6 0 .267-.007.467-.02.6-.093 1.76-.853 2.64-2.28 2.64zm12.08 1.96c.147 0 .263-.047.35-.14.087-.093.13-.207.13-.34v-7.78h3.24c.147 0 .263-.047.35-.14.087-.093.13-.207.13-.34v-1.18c0-.147-.043-.263-.13-.35-.087-.087-.203-.13-.35-.13h-9.1c-.133 0-.247.043-.34.13-.093.087-.14.203-.14.35v1.18c0 .133.047.247.14.34.093.093.207.14.34.14h3.24v7.78c0 .133.047.247.14.34.093.093.207.14.34.14h1.66zm8.82.2c.8 0 1.467-.137 2-.41.533-.273.947-.623 1.24-1.05v.78c0 .133.047.247.14.34.093.093.207.14.34.14h1.66c.147 0 .263-.047.35-.14.087-.093.13-.207.13-.34v-6.28c0-1.147-.36-2.073-1.08-2.78-.72-.707-1.867-1.06-3.44-1.06-.96 0-1.767.157-2.42.47-.653.313-1.137.68-1.45 1.1-.313.42-.477.797-.49 1.13 0 .133.043.24.13.32.087.08.19.12.31.12h1.56c.147 0 .247-.08.3-.24l.33-.33c.167-.167.383-.33.65-.49.267-.16.62-.24 1.06-.24.64 0 1.107.147 1.4.44.293.293.44.727.44 1.3v.42l-2.74.4c-1.28.2-2.287.58-3.02 1.14-.733.56-1.1 1.293-1.1 2.2 0 .56.163 1.073.49 1.54.327.467.773.837 1.34 1.11.567.273 1.19.41 1.87.41zm.68-1.92c-.493 0-.917-.117-1.27-.35-.353-.233-.53-.563-.53-.99 0-.787.767-1.3 2.3-1.54l2-.32v.4c0 .907-.233 1.6-.7 2.08-.467.48-1.067.72-1.8.72zm16.64 1.72c.147 0 .263-.047.35-.14.087-.093.13-.207.13-.34v-9.44c0-.147-.043-.263-.13-.35-.087-.087-.203-.13-.35-.13h-7.14c-.133 0-.247.043-.34.13-.093.087-.14.203-.14.35v2.7c0 1.733-.127 2.987-.38 3.76-.253.773-.673 1.18-1.26 1.22-.133.013-.243.06-.33.14-.087.08-.13.187-.13.32v1.28c0 .133.05.25.15.35.1.1.217.15.35.15 1.04 0 1.857-.223 2.45-.67.593-.447 1.023-1.167 1.29-2.16.267-.993.4-2.357.4-4.09v-1.34h2.9v7.78c0 .133.047.247.14.34.093.093.207.14.34.14h1.7zm-194.6 24c.147 0 .267-.047.36-.14.093-.093.14-.207.14-.34V47.54h5.84v10.98c0 .133.047.247.14.34.093.093.207.14.34.14h1.86c.147 0 .263-.047.35-.14.087-.093.13-.207.13-.34V45.5c0-.147-.043-.267-.13-.36-.087-.093-.203-.14-.35-.14h-10.52c-.147 0-.263.047-.35.14-.087.093-.13.213-.13.36v13.02c0 .133.047.247.14.34.093.093.207.14.34.14h1.84zm16.54.2c.933 0 1.753-.16 2.46-.48.707-.32 1.25-.697 1.63-1.13.38-.433.57-.81.57-1.13 0-.12-.043-.213-.13-.28-.087-.067-.19-.1-.31-.1h-1.76c-.16 0-.273.017-.34.05s-.16.123-.28.27c-.48.613-1.1.92-1.86.92-.667 0-1.19-.243-1.57-.73-.38-.487-.583-1.103-.61-1.85v-.16h6.64c.147 0 .267-.047.36-.14.093-.093.14-.207.14-.34v-.42c0-1.6-.43-2.88-1.29-3.84-.86-.96-2.083-1.44-3.67-1.44-1.547 0-2.757.48-3.63 1.44-.873.96-1.31 2.273-1.31 3.94l.02.5c.053 1.573.517 2.787 1.39 3.64.873.853 2.057 1.28 3.55 1.28zm2.18-6.32h-4.38v-.04c0-.787.193-1.417.58-1.89.387-.473.92-.71 1.6-.71s1.217.237 1.61.71.59 1.103.59 1.89v.04zm7.06 6.12c.133 0 .247-.047.34-.14.093-.093.14-.207.14-.34v-3.74h4.46v3.74c0 .133.047.247.14.34.093.093.207.14.34.14h1.7c.147 0 .263-.047.35-.14.087-.093.13-.207.13-.34v-9.44c0-.147-.043-.263-.13-.35-.087-.087-.203-.13-.35-.13h-1.7c-.133 0-.247.047-.34.14-.093.093-.14.207-.14.34v3.56h-4.46v-3.56c0-.133-.047-.247-.14-.34-.093-.093-.207-.14-.34-.14h-1.7c-.133 0-.247.043-.34.13-.093.087-.14.203-.14.35v9.44c0 .133.047.247.14.34.093.093.207.14.34.14h1.7zm14.3.2c1.427 0 2.56-.27 3.4-.81.84-.54 1.26-1.297 1.26-2.27 0-1.347-.533-2.22-1.6-2.62.453-.227.777-.513.97-.86.193-.347.29-.78.29-1.3 0-.813-.35-1.507-1.05-2.08-.7-.573-1.79-.86-3.27-.86-.987 0-1.807.15-2.46.45-.653.3-1.137.687-1.45 1.16-.313.473-.483.977-.51 1.51-.013.093.02.177.1.25.08.073.173.11.28.11h1.6c.24 0 .413-.113.52-.34.133-.413.337-.713.61-.9.273-.187.71-.28 1.31-.28.6 0 1.043.127 1.33.38.287.253.43.573.43.96s-.12.67-.36.85c-.24.18-.6.27-1.08.27h-1.02c-.133 0-.24.043-.32.13-.08.087-.12.19-.12.31v.86c0 .12.04.223.12.31.08.087.187.13.32.13h1.1c1.08 0 1.62.447 1.62 1.34 0 .453-.177.793-.53 1.02-.353.227-.817.34-1.39.34s-1.033-.083-1.38-.25c-.347-.167-.58-.437-.7-.81-.107-.227-.28-.34-.52-.34h-1.66c-.107 0-.197.033-.27.1-.073.067-.11.147-.11.24v.02c.04.453.21.903.51 1.35.3.447.78.83 1.44 1.15.66.32 1.523.48 2.59.48zm11.22 0c.933 0 1.753-.16 2.46-.48.707-.32 1.25-.697 1.63-1.13.38-.433.57-.81.57-1.13 0-.12-.043-.213-.13-.28-.087-.067-.19-.1-.31-.1h-1.76c-.16 0-.273.017-.34.05s-.16.123-.28.27c-.48.613-1.1.92-1.86.92-.667 0-1.19-.243-1.57-.73-.38-.487-.583-1.103-.61-1.85v-.16h6.64c.147 0 .267-.047.36-.14.093-.093.14-.207.14-.34v-.42c0-1.6-.43-2.88-1.29-3.84-.86-.96-2.083-1.44-3.67-1.44-1.547 0-2.757.48-3.63 1.44-.873.96-1.31 2.273-1.31 3.94l.02.5c.053 1.573.517 2.787 1.39 3.64.873.853 2.057 1.28 3.55 1.28zm2.18-6.32h-4.38v-.04c0-.787.193-1.417.58-1.89.387-.473.92-.71 1.6-.71s1.217.237 1.61.71.59 1.103.59 1.89v.04zm7.06 6.12c.133 0 .247-.047.34-.14.093-.093.14-.207.14-.34v-3.74h4.46v3.74c0 .133.047.247.14.34.093.093.207.14.34.14h1.7c.147 0 .263-.047.35-.14.087-.093.13-.207.13-.34v-9.44c0-.147-.043-.263-.13-.35-.087-.087-.203-.13-.35-.13h-1.7c-.133 0-.247.047-.34.14-.093.093-.14.207-.14.34v3.56h-4.46v-3.56c0-.133-.047-.247-.14-.34-.093-.093-.207-.14-.34-.14h-1.7c-.133 0-.247.043-.34.13-.093.087-.14.203-.14.35v9.44c0 .133.047.247.14.34.093.093.207.14.34.14h1.7zm14.8.2c1.08 0 1.98-.193 2.7-.58.72-.387 1.253-.85 1.6-1.39.347-.54.533-1.043.56-1.51.013-.133-.03-.247-.13-.34-.1-.093-.217-.14-.35-.14h-1.78c-.147 0-.257.033-.33.1-.073.067-.137.173-.19.32-.2.52-.46.89-.78 1.11-.32.22-.74.33-1.26.33-1.387 0-2.12-.867-2.2-2.6l-.02-.66.02-.74c.027-.88.23-1.533.61-1.96.38-.427.91-.64 1.59-.64.507 0 .923.113 1.25.34.327.227.59.593.79 1.1.067.16.133.27.2.33s.173.09.32.09h1.78c.133 0 .25-.047.35-.14.1-.093.143-.207.13-.34-.027-.493-.217-1.01-.57-1.55s-.893-.997-1.62-1.37c-.727-.373-1.617-.56-2.67-.56-1.467 0-2.637.407-3.51 1.22-.873.813-1.337 1.94-1.39 3.38l-.02.8.02.8c.053 1.44.517 2.567 1.39 3.38.873.813 2.043 1.22 3.51 1.22zm9.08-.2c.147 0 .263-.047.35-.14.087-.093.13-.207.13-.34V54.8h1.46l2.6 3.9c.08.107.16.183.24.23.08.047.187.07.32.07h2.06c.12 0 .22-.033.3-.1.08-.067.12-.153.12-.26 0-.08-.033-.167-.1-.26l-3.26-4.76 2.84-4.4c.067-.133.1-.22.1-.26 0-.107-.04-.193-.12-.26-.08-.067-.187-.1-.32-.1h-1.84c-.12 0-.22.027-.3.08-.08.053-.16.133-.24.24l-2.38 3.72h-1.48v-3.56c0-.147-.043-.263-.13-.35-.087-.087-.203-.13-.35-.13h-1.66c-.133 0-.247.043-.34.13-.093.087-.14.203-.14.35v9.44c0 .133.047.247.14.34.093.093.207.14.34.14h1.66zm13.94.2c1.56 0 2.767-.4 3.62-1.2.853-.8 1.313-1.907 1.38-3.32.013-.16.02-.453.02-.88s-.007-.72-.02-.88c-.067-1.4-.533-2.503-1.4-3.31-.867-.807-2.067-1.21-3.6-1.21-1.547 0-2.753.403-3.62 1.21-.867.807-1.333 1.91-1.4 3.31l-.02.88.02.88c.067 1.413.527 2.52 1.38 3.32.853.8 2.067 1.2 3.64 1.2zm0-2.02c-.707 0-1.253-.22-1.64-.66-.387-.44-.593-1.087-.62-1.94l-.02-.78.02-.78c.027-.853.233-1.503.62-1.95.387-.447.933-.67 1.64-.67.693 0 1.233.223 1.62.67.387.447.593 1.097.62 1.95.013.133.02.393.02.78s-.007.647-.02.78c-.027.853-.23 1.5-.61 1.94-.38.44-.923.66-1.63.66zm12.34-9.94c1.147 0 1.98-.25 2.5-.75s.78-1.15.78-1.95c0-.107-.033-.197-.1-.27-.067-.073-.16-.11-.28-.11h-1.16c-.12 0-.213.037-.28.11-.067.073-.1.163-.1.27 0 .773-.453 1.16-1.36 1.16-.893 0-1.34-.387-1.34-1.16 0-.107-.033-.197-.1-.27-.067-.073-.16-.11-.28-.11h-1.16c-.12 0-.213.037-.28.11-.067.073-.1.163-.1.27 0 .8.26 1.45.78 1.95s1.347.75 2.48.75zm-3.1 11.76c.227 0 .413-.107.56-.32l4.74-6.54v6.38c0 .133.047.247.14.34.093.093.207.14.34.14h1.7c.147 0 .263-.047.35-.14.087-.093.13-.207.13-.34v-9.48c0-.12-.047-.223-.14-.31-.093-.087-.2-.13-.32-.13h-1.54c-.213 0-.4.107-.56.32l-4.74 6.54v-6.38c0-.133-.047-.247-.14-.34-.093-.093-.207-.14-.34-.14h-1.7c-.133 0-.247.043-.34.13-.093.087-.14.203-.14.35v9.46c0 .133.043.243.13.33.087.087.197.13.33.13h1.54zm19.66.2c1.56 0 2.767-.4 3.62-1.2.853-.8 1.313-1.907 1.38-3.32.013-.16.02-.453.02-.88s-.007-.72-.02-.88c-.067-1.4-.533-2.503-1.4-3.31-.867-.807-2.067-1.21-3.6-1.21-1.547 0-2.753.403-3.62 1.21-.867.807-1.333 1.91-1.4 3.31l-.02.88.02.88c.067 1.413.527 2.52 1.38 3.32.853.8 2.067 1.2 3.64 1.2zm0-2.02c-.707 0-1.253-.22-1.64-.66-.387-.44-.593-1.087-.62-1.94l-.02-.78.02-.78c.027-.853.233-1.503.62-1.95.387-.447.933-.67 1.64-.67.693 0 1.233.223 1.62.67.387.447.593 1.097.62 1.95.013.133.02.393.02.78s-.007.647-.02.78c-.027.853-.23 1.5-.61 1.94-.38.44-.923.66-1.63.66zm11.96 2.02c1.56 0 2.767-.387 3.62-1.16.853-.773 1.313-1.827 1.38-3.16.027-.24.04-.447.04-.62s-.013-.407-.04-.7c-.067-1.333-.487-2.387-1.26-3.16-.773-.773-1.86-1.16-3.26-1.16-.587 0-1.143.12-1.67.36-.527.24-.95.56-1.27.96.053-1.027.26-1.79.62-2.29s.883-.873 1.57-1.12c.687-.247 1.837-.543 3.45-.89.133-.04.333-.087.6-.14.107-.027.193-.08.26-.16s.1-.173.1-.28l-.02-.12-.26-1.34c-.013-.107-.063-.197-.15-.27-.087-.073-.183-.11-.29-.11l-.12.02c-2.333.56-4.02 1.057-5.06 1.49-1.04.433-1.833 1.123-2.38 2.07-.547.947-.84 2.367-.88 4.26l-.02 1.2.02 1.2c.067 1.693.507 2.97 1.32 3.83.813.86 2.047 1.29 3.7 1.29zm0-1.86c-.707 0-1.253-.217-1.64-.65-.387-.433-.593-1.07-.62-1.91l-.02-.52.02-.6c.027-.813.253-1.443.68-1.89.427-.447 1-.67 1.72-.67.64 0 1.143.22 1.51.66.367.44.563 1.073.59 1.9.013.12.02.32.02.6 0 .253-.007.427-.02.52-.027.84-.23 1.477-.61 1.91-.38.433-.923.65-1.63.65zm16.14 1.66c.147 0 .263-.047.35-.14.087-.093.13-.207.13-.34v-9.44c0-.147-.043-.263-.13-.35-.087-.087-.203-.13-.35-.13h-7.14c-.133 0-.247.043-.34.13-.093.087-.14.203-.14.35v2.7c0 1.733-.127 2.987-.38 3.76-.253.773-.673 1.18-1.26 1.22-.133.013-.243.06-.33.14-.087.08-.13.187-.13.32v1.28c0 .133.05.25.15.35.1.1.217.15.35.15 1.04 0 1.857-.223 2.45-.67.593-.447 1.023-1.167 1.29-2.16.267-.993.4-2.357.4-4.09v-1.34h2.9v7.78c0 .133.047.247.14.34.093.093.207.14.34.14h1.7zm6.2.2c.8 0 1.467-.137 2-.41.533-.273.947-.623 1.24-1.05v.78c0 .133.047.247.14.34.093.093.207.14.34.14h1.66c.147 0 .263-.047.35-.14.087-.093.13-.207.13-.34v-6.28c0-1.147-.36-2.073-1.08-2.78-.72-.707-1.867-1.06-3.44-1.06-.96 0-1.767.157-2.42.47-.653.313-1.137.68-1.45 1.1-.313.42-.477.797-.49 1.13 0 .133.043.24.13.32.087.08.19.12.31.12h1.56c.147 0 .247-.08.3-.24l.33-.33c.167-.167.383-.33.65-.49.267-.16.62-.24 1.06-.24.64 0 1.107.147 1.4.44.293.293.44.727.44 1.3v.42l-2.74.4c-1.28.2-2.287.58-3.02 1.14-.733.56-1.1 1.293-1.1 2.2 0 .56.163 1.073.49 1.54.327.467.773.837 1.34 1.11.567.273 1.19.41 1.87.41zm.68-1.92c-.493 0-.917-.117-1.27-.35-.353-.233-.53-.563-.53-.99 0-.787.767-1.3 2.3-1.54l2-.32v.4c0 .907-.233 1.6-.7 2.08-.467.48-1.067.72-1.8.72zm12.24 1.92c1.08 0 1.98-.193 2.7-.58.72-.387 1.253-.85 1.6-1.39.347-.54.533-1.043.56-1.51.013-.133-.03-.247-.13-.34-.1-.093-.217-.14-.35-.14h-1.78c-.147 0-.257.033-.33.1-.073.067-.137.173-.19.32-.2.52-.46.89-.78 1.11-.32.22-.74.33-1.26.33-1.387 0-2.12-.867-2.2-2.6l-.02-.66.02-.74c.027-.88.23-1.533.61-1.96.38-.427.91-.64 1.59-.64.507 0 .923.113 1.25.34.327.227.59.593.79 1.1.067.16.133.27.2.33s.173.09.32.09h1.78c.133 0 .25-.047.35-.14.1-.093.143-.207.13-.34-.027-.493-.217-1.01-.57-1.55s-.893-.997-1.62-1.37c-.727-.373-1.617-.56-2.67-.56-1.467 0-2.637.407-3.51 1.22-.873.813-1.337 1.94-1.39 3.38l-.02.8.02.8c.053 1.44.517 2.567 1.39 3.38.873.813 2.043 1.22 3.51 1.22zm11.76-.2c.147 0 .263-.047.35-.14.087-.093.13-.207.13-.34v-7.78h3.24c.147 0 .263-.047.35-.14.087-.093.13-.207.13-.34v-1.18c0-.147-.043-.263-.13-.35-.087-.087-.203-.13-.35-.13h-9.1c-.133 0-.247.043-.34.13-.093.087-.14.203-.14.35v1.18c0 .133.047.247.14.34.093.093.207.14.34.14h3.24v7.78c0 .133.047.247.14.34.093.093.207.14.34.14h1.66zm7.8 0c.227 0 .413-.107.56-.32l4.74-6.54v6.38c0 .133.047.247.14.34.093.093.207.14.34.14h1.7c.147 0 .263-.047.35-.14.087-.093.13-.207.13-.34v-9.48c0-.12-.047-.223-.14-.31-.093-.087-.2-.13-.32-.13h-1.54c-.213 0-.4.107-.56.32l-4.74 6.54v-6.38c0-.133-.047-.247-.14-.34-.093-.093-.207-.14-.34-.14h-1.7c-.133 0-.247.043-.34.13-.093.087-.14.203-.14.35v9.46c0 .133.043.243.13.33.087.087.197.13.33.13h1.54z"/>
    </g>
</svg>
